<svg
  enable-background="new 0 0 512 512"
  viewBox="0 0 512 512"
  xmlns="http://www.w3.org/2000/svg"
>
  <circle cx="256" cy="256" fill="#ebc9a0" r="248.5" />
  <circle cx="256" cy="256" fill="#d7b48c" r="208.42" />
  <circle cx="256" cy="256" fill="#f5dcb4" r="184.37" />
  <circle cx="256" cy="256" fill="#bff0ff" r="152.31" />
  <circle cx="256" cy="256" fill="#dff8ff" r="88.18" />
  <path
    d="m407.522 240.443c-43.76 3.892-47.334 31.589-97.663 31.589-54.168 0-54.168-32.065-108.335-32.065-50.111 0-53.883 27.429-97.047 31.54 7.77 76.833 72.642 136.799 151.523 136.799 84.117 0 152.306-68.19 152.306-152.306 0-5.252-.266-10.442-.784-15.557z"
    fill="#00c3ff"
  />
  <path
    d="m407.522 240.443c-43.76 3.892-47.334 31.589-97.663 31.589-54.168 0-54.168-32.065-108.335-32.065-50.111 0-53.883 27.429-97.047 31.54 1.129 11.164 3.593 21.912 7.002 32.231 29.511-1.733 46.964-12.535 59.78-20.626 11.312-7.147 17.551-11.081 33.661-11.081 16.118 0 22.35 3.934 33.661 11.081 14.028 8.854 33.231 20.984 67.894 20.984 34.656 0 53.858-12.134 67.879-20.991 11.03-6.967 17.105-10.803 32.166-11.061.324-.005.622-.096.943-.112.545-5.239.842-10.55.842-15.932.001-5.252-.265-10.442-.783-15.557z"
    fill="#00aaf0"
  />
  <path
    d="m437.02 74.98c-48.353-48.351-112.64-74.98-181.02-74.98s-132.667 26.629-181.02 74.98c-48.351 48.353-74.98 112.64-74.98 181.02s26.629 132.667 74.98 181.02c48.353 48.351 112.64 74.98 181.02 74.98s132.667-26.629 181.02-74.98c48.351-48.353 74.98-112.64 74.98-181.02s-26.629-132.667-74.98-181.02zm-10.607 351.433c-45.519 45.519-106.039 70.587-170.413 70.587s-124.894-25.068-170.413-70.587-70.587-106.039-70.587-170.413 25.068-124.894 70.587-170.413 106.039-70.587 170.413-70.587 124.894 25.068 170.413 70.587 70.587 106.039 70.587 170.413-25.068 124.894-70.587 170.413z"
  />
  <path
    d="m79.275 248.796c1.802-44.495 20.148-86.353 51.658-117.863 31.511-31.511 73.369-49.856 117.864-51.658 44.243-1.794 87.183 12.855 120.923 41.245 3.17 2.667 7.901 2.26 10.567-.91 2.667-3.169 2.259-7.9-.91-10.567-36.61-30.804-83.188-46.697-131.188-44.755-48.271 1.955-93.68 21.856-127.863 56.04-34.183 34.183-54.084 79.592-56.04 127.862-1.944 47.987 13.95 94.577 44.753 131.187 1.483 1.763 3.605 2.671 5.743 2.671 1.704 0 3.418-.578 4.825-1.761 3.169-2.667 3.577-7.398.91-10.567-28.387-33.741-43.034-76.685-41.242-120.924z"
  />
  <path
    d="m392.39 131.712c-3.169 2.667-3.577 7.398-.91 10.567 28.389 33.739 43.037 76.684 41.245 120.923-1.802 44.495-20.148 86.354-51.658 117.864-31.511 31.51-73.369 49.856-117.863 51.658-44.238 1.792-87.183-12.855-120.922-41.243-3.169-2.667-7.901-2.259-10.567.91-2.667 3.169-2.259 7.901.91 10.567 34.608 29.119 78.129 44.914 123.323 44.913 2.614 0 5.24-.053 7.864-.159 48.271-1.955 93.68-21.857 127.862-56.04 34.183-34.183 54.085-79.593 56.04-127.864 1.943-47.987-13.951-94.577-44.755-131.187-2.668-3.168-7.4-3.576-10.569-.909z"
  />
  <path
    d="m256 96.193c-88.118 0-159.807 71.689-159.807 159.807s71.689 159.807 159.807 159.807 159.807-71.689 159.807-159.807-71.689-159.807-159.807-159.807zm0 15c71.956 0 131.813 52.759 142.942 121.623-21.815 1.74-34.453 9.723-45.723 16.844-12.104 7.648-23.538 14.873-46.74 14.873-23.22 0-34.662-7.225-46.776-14.874-12.761-8.058-27.225-17.19-54.785-17.19s-42.024 9.133-54.785 17.19c-10.634 6.715-20.733 13.091-38.703 14.559-.153-2.721-.238-5.459-.238-8.217.001-79.848 64.961-144.808 144.808-144.808zm0 289.614c-71.975 0-131.844-52.786-142.951-121.677 21.423-1.845 33.932-9.74 45.094-16.788 12.114-7.649 23.556-14.874 46.776-14.874s34.662 7.225 46.776 14.874c12.761 8.058 27.225 17.19 54.785 17.19 27.544 0 41.999-9.133 54.752-17.192 10.752-6.794 20.965-13.241 39.334-14.605.155 2.736.241 5.49.241 8.265 0 79.847-64.96 144.807-144.807 144.807z"
  />
  <path
    d="m39.645 248.5h-.08c-4.142 0-7.46 3.358-7.46 7.5s3.398 7.5 7.54 7.5 7.5-3.358 7.5-7.5-3.358-7.5-7.5-7.5z"
  />
  <path
    d="m472.516 248.5h-.08c-4.142 0-7.46 3.358-7.46 7.5s3.398 7.5 7.54 7.5 7.5-3.358 7.5-7.5-3.358-7.5-7.5-7.5z"
  />
  <path
    d="m256.04 47.104c4.142 0 7.5-3.358 7.5-7.5v-.08c0-4.142-3.358-7.46-7.5-7.46s-7.5 3.398-7.5 7.54 3.358 7.5 7.5 7.5z"
  />
  <path
    d="m256.04 464.936c-4.142 0-7.5 3.398-7.5 7.54s3.358 7.5 7.5 7.5 7.5-3.358 7.5-7.5v-.08c0-4.143-3.358-7.46-7.5-7.46z"
  />
  <path
    d="m103.025 110.485c1.919 0 3.839-.732 5.303-2.197 2.929-2.929 2.929-7.678 0-10.606l-.057-.057c-2.929-2.928-7.649-2.901-10.578.028s-2.901 7.706.028 10.635c1.466 1.465 3.385 2.197 5.304 2.197z"
  />
  <path
    d="m414.358 403.711c-2.929-2.928-7.649-2.901-10.578.028s-2.901 7.706.028 10.635c1.464 1.464 3.384 2.197 5.303 2.197s3.839-.732 5.303-2.197c2.929-2.929 2.929-7.678 0-10.606z"
  />
  <path
    d="m409.055 110.485c1.919 0 3.839-.732 5.303-2.197l.057-.057c2.929-2.929 2.901-7.649-.028-10.578-2.929-2.928-7.706-2.901-10.635.028s-2.929 7.678 0 10.606c1.464 1.466 3.383 2.198 5.303 2.198z"
  />
  <path
    d="m97.666 403.768c-2.929 2.929-2.929 7.678 0 10.606 1.464 1.464 3.384 2.197 5.303 2.197s3.839-.732 5.303-2.197l.057-.057c2.929-2.929 2.901-7.649-.028-10.578-2.929-2.927-7.706-2.901-10.635.029z"
  />
  <path
    d="m278.556 145.513c38.523 7.82 70.617 35.737 83.756 72.857 1.089 3.078 3.982 5 7.07 5 .831 0 1.675-.139 2.502-.432 3.905-1.382 5.95-5.668 4.568-9.573-14.887-42.059-51.255-73.691-94.912-82.553-4.058-.822-8.018 1.799-8.842 5.858-.824 4.06 1.799 8.019 5.858 8.843z"
  />
  <path
    d="m242.576 276.763c-11.669-7.365-19.378-12.231-37.658-12.231-18.274 0-25.98 4.862-37.667 12.236-3.549 2.242-7.219 4.561-11.408 6.867-5.088 2.8-9.994 5.04-14.999 6.846-3.896 1.406-5.915 5.705-4.509 9.601 1.103 3.056 3.984 4.956 7.055 4.956.845 0 1.705-.144 2.545-.447 5.75-2.076 11.357-4.631 17.139-7.814 4.586-2.524 8.625-5.075 12.203-7.336 11.106-7.008 15.703-9.908 29.641-9.908 13.942 0 18.541 2.903 29.658 9.919 3.501 2.21 8.131 1.162 10.342-2.341s1.161-8.137-2.342-10.348z"
  />
  <path
    d="m326.573 295.005c-6.313 1.056-13.073 1.592-20.091 1.592-4.142 0-7.5 3.358-7.5 7.5s3.358 7.5 7.5 7.5c7.846 0 15.438-.605 22.567-1.798 4.085-.684 6.843-4.549 6.159-8.635-.684-4.085-4.547-6.845-8.635-6.159z"
  />
</svg>
